<svg xmlns="http://www.w3.org/2000/svg" xmlns:xlink="http://www.w3.org/1999/xlink" width="170" height="170" viewBox="0 0 170 170"><defs><clipPath id="b"><rect width="170" height="170"/></clipPath></defs><g id="a" clip-path="url(#b)"><rect width="170" height="170" fill="#fff"/><rect width="170" height="170" fill="#733fff"/><g transform="translate(35.858 35.858)"><path d="M49.183,98.284h0a49.029,49.029,0,0,1-25.591-7.208l-16.856,5.5a1.908,1.908,0,0,1-.42.047A1.941,1.941,0,0,1,4.4,94.376l4.523-17.1A49.052,49.052,0,0,1,49.012,0h.175a49.142,49.142,0,0,1,0,98.284Zm-.049-73.711a4.1,4.1,0,0,0-4.095,4.1V69.619a4.095,4.095,0,1,0,8.19,0V28.668A4.1,4.1,0,0,0,49.134,24.572ZM32.757,32.764a4.1,4.1,0,0,0-4.095,4.095v24.57a4.095,4.095,0,0,0,8.19,0V36.859A4.1,4.1,0,0,0,32.757,32.764ZM65.517,38.2a4.1,4.1,0,0,0-4.1,4.095v13.65a4.1,4.1,0,0,0,8.191,0V42.292A4.1,4.1,0,0,0,65.517,38.2Z" transform="translate(0 0)" fill="#fff"/></g></g></svg>