<svg xmlns="http://www.w3.org/2000/svg" width="48" height="48" viewBox="0 0 48 48"><g transform="translate(-1498 -4267)"><rect width="48" height="48" transform="translate(1498 4267)" fill="#43d67a"/><g transform="translate(1509 4278)"><path d="M310.853,323.556a.769.769,0,0,0-.776-.521c-.2-.007-.431-.007-.661-.007a1.355,1.355,0,0,0-.92.377,3.221,3.221,0,0,0-1.207,2.515,5.515,5.515,0,0,0,1.408,3.119,13.584,13.584,0,0,0,5.891,4.552c2.914,1,3.506.8,4.139.754a3.515,3.515,0,0,0,2.328-1.433,2.225,2.225,0,0,0,.2-1.434c-.086-.126-.316-.2-.661-.352s-2.04-.88-2.357-.981-.546-.151-.776.151-.891.981-1.092,1.182-.4.227-.747.076a9.8,9.8,0,0,1-2.773-1.5,9.388,9.388,0,0,1-1.919-2.088c-.2-.3-.022-.465.152-.615.155-.135.345-.352.517-.528a2.035,2.035,0,0,0,.345-.5.5.5,0,0,0-.029-.528C311.83,325.643,311.16,324.152,310.853,323.556Z" transform="translate(-301.251 -315.709)" fill="#fff" fill-rule="evenodd"/><path d="M29.212,3.892A12.921,12.921,0,0,0,8.837,19.438L7,26.114l6.863-1.791a12.983,12.983,0,0,0,6.186,1.568h.006A12.934,12.934,0,0,0,33,13.007a12.777,12.777,0,0,0-3.788-9.115ZM20.054,23.715h0a10.783,10.783,0,0,1-5.477-1.493l-.393-.232-4.072,1.063L11.2,19.1l-.256-.405A10.746,10.746,0,0,1,27.666,5.431a10.619,10.619,0,0,1,3.149,7.576A10.75,10.75,0,0,1,20.054,23.715Z" transform="translate(-7 -0.114)" fill="#fff"/></g></g></svg>